<svg id="Vrstva_1" data-name="Vrstva 1" xmlns="http://www.w3.org/2000/svg" viewBox="0 0 721.08 227.95"><defs><style>.cls-1{fill:#c01c1b;}</style></defs><polygon class="cls-1" points="134.21 0.13 132.48 0.22 130.75 0.42 129.07 0.77 127.44 1.29 125.81 1.91 124.25 2.69 122.76 3.54 121.36 4.51 120.06 5.65 118.81 6.83 117.7 8.17 116.7 9.53 115.79 11 115.05 12.55 114.45 14.12 113.95 15.73 113.62 17.42 113.4 19.08 113.33 20.82 113.43 22.5 113.63 24.2 114.03 25.86 114.5 27.45 115.14 29.02 115.91 30.57 116.8 32.02 117.81 33.41 118.93 34.68 120.16 35.89 121.5 36.99 122.9 37.96 124.41 38.81 125.97 39.57 127.56 40.17 129.24 40.65 130.94 40.98 132.69 41.21 134.41 41.26 136.12 41.17 137.86 40.94 139.54 40.59 141.21 40.13 142.82 39.51 144.39 38.74 145.81 37.86 147.26 36.85 148.58 35.76 149.8 34.54 150.91 33.25 151.91 31.89 152.81 30.43 153.56 28.87 154.16 27.3 154.66 25.64 155.01 23.99 155.22 22.28 155.25 20.58 155.21 18.93 154.99 17.23 154.62 15.55 154.12 13.91 153.48 12.35 152.69 10.82 151.82 9.37 150.81 8.02 149.66 6.7 148.43 5.52 147.09 4.42 145.69 3.46 144.2 2.57 142.62 1.84 141.02 1.24 139.35 0.75 137.64 0.4 135.94 0.22 134.21 0.13"/><path class="cls-1" d="M76,91.09A10.73,10.73,0,0,1,69.4,71.92a105,105,0,0,1,129.77,0A10.73,10.73,0,0,1,185.93,88.8c-7-5.5-26.21-18.21-52.83-17.88A84.37,84.37,0,0,0,82.64,88.8,10.66,10.66,0,0,1,76,91.09Z"/><polygon class="cls-1" points="229 206.82 229.79 205.27 230.48 203.67 231.02 202.05 231.38 200.37 231.66 198.64 231.77 196.91 231.77 195.2 231.64 193.49 231.3 191.8 230.9 190.13 230.3 188.49 229.62 186.95 228.8 185.43 227.83 184.01 226.77 182.71 225.62 181.47 224.32 180.34 223 179.32 221.53 178.39 220.02 177.64 218.45 176.96 216.81 176.47 215.2 176.09 213.52 175.85 211.79 175.74 210.09 175.79 208.39 175.97 206.72 176.31 205.06 176.77 203.43 177.38 201.9 178.1 200.41 178.99 198.97 179.96 197.65 181.04 196.39 182.25 195.26 183.55 194.19 184.96 193.28 186.42 192.5 187.94 191.83 189.57 191.3 191.21 190.87 192.87 190.59 194.58 190.47 196.32 190.53 198 190.68 199.76 190.96 201.44 191.41 203.11 191.97 204.72 192.65 206.26 193.47 207.78 194.44 209.2 195.5 210.5 196.68 211.77 197.94 212.9 199.32 213.93 200.77 214.81 202.22 215.6 203.8 216.26 205.44 216.78 207.11 217.16 208.79 217.39 210.5 217.47 212.2 217.45 213.87 217.25 215.59 216.9 217.23 216.44 218.85 215.83 220.38 215.1 221.9 214.25 223.32 213.24 224.64 212.16 225.89 210.96 227.05 209.65 228.07 208.26 229 206.82"/><path class="cls-1" d="M179.32,111a10.73,10.73,0,0,1,19.91,3.84,104.92,104.92,0,0,1-64.88,112.38,10.72,10.72,0,0,1-8-19.9c8.27-3.32,28.88-13.59,41.9-36.81A84.39,84.39,0,0,0,178,117.82,10.62,10.62,0,0,1,179.32,111Z"/><polygon class="cls-1" points="3.11 185.95 4.06 187.4 5.1 188.8 6.24 190.08 7.51 191.23 8.87 192.34 10.31 193.3 11.79 194.16 13.34 194.89 14.97 195.45 16.62 195.94 18.34 196.23 20.01 196.42 21.74 196.47 23.45 196.34 25.11 196.07 26.76 195.69 28.39 195.13 29.93 194.5 31.48 193.69 32.88 192.76 34.25 191.74 35.49 190.56 36.63 189.36 37.67 188.03 38.63 186.58 39.44 185.08 40.13 183.52 40.68 181.91 41.11 180.24 41.4 178.53 41.53 176.84 41.52 175.1 41.39 173.36 41.12 171.69 40.7 169.99 40.13 168.36 39.46 166.73 38.64 165.22 37.71 163.78 36.63 162.38 35.49 161.1 34.26 159.89 32.92 158.8 31.47 157.83 29.99 157.04 28.39 156.29 26.79 155.69 25.13 155.25 23.45 154.93 21.78 154.75 20.05 154.69 18.34 154.83 16.68 155.09 14.99 155.48 13.38 156.01 11.8 156.69 10.31 157.51 8.9 158.36 7.54 159.41 6.27 160.56 5.1 161.82 4.07 163.15 3.14 164.6 2.31 166.08 1.65 167.63 1.09 169.29 0.67 170.94 0.39 172.65 0.26 174.34 0.23 176.08 0.4 177.82 0.67 179.5 1.09 181.19 1.64 182.84 2.33 184.41 3.11 185.95"/><path class="cls-1" d="M111,190.86A10.72,10.72,0,0,1,97.7,206.18,105,105,0,0,1,32.81,93.8a10.73,10.73,0,1,1,21.24,3c-1.26,8.83-2.67,31.81,10.93,54.7a84.33,84.33,0,0,0,40.71,34.75A10.67,10.67,0,0,1,111,190.86Z"/><path class="cls-1" d="M290.92,86.63a10.05,10.05,0,0,0,10,7.43c5.44,0,8.94-3.64,8.94-8s-3.43-6.26-10.38-9.07c-3.58-1.45-6.53-2.48-8.73-4.41a11.55,11.55,0,0,1-3.92-8.8c0-7,5.22-12.38,13.61-12.38a22.6,22.6,0,0,1,12.93,4v8.39H310c-1.65-5.09-4.88-7.7-9.56-7.7-4.33,0-7.63,3-7.63,6.88,0,5.63,3.92,6.39,10.52,8.87,8.11,3,12.1,6.81,12.1,13.61,0,7.91-5.36,13.76-14.58,13.76a25.18,25.18,0,0,1-13.61-4.06V86.63Z"/><path class="cls-1" d="M326.2,68.68h-5.84v-4h5.84V55.75h5.71v8.94h7.56v4h-7.56V88.76c0,4.89.21,5.44,5,5.44h2.54v3.92h-4.12c-8.32,0-9.15-.83-9.15-9.08Z"/><path class="cls-1" d="M364.58,98.12v-2.2l-.56-.14a11.68,11.68,0,0,1-8.52,3.37A9.48,9.48,0,0,1,346.35,93c-1-2.41-.89-5.71-.89-10V64.69h5.7V85.05c0,6,1,9.28,6,9.28,2.47,0,4.81-1.1,7.49-3.3V64.69h5.78V98.12Z"/><path class="cls-1" d="M399.1,98.12V95.57l-.69-.27c-2.41,2.54-4.81,3.85-7.84,3.85-7.08,0-12.38-6.26-12.38-17.74,0-11.28,5.23-17.75,12.24-17.75,3,0,5.5,1.24,8,3.79l.69-.14V51.21h5.71V98.12Zm0-26.07c-2.48-2.27-4.75-3.37-7.08-3.37q-7.84,0-7.84,12.79c0,8.46,2.75,12.66,7.84,12.66,2.47,0,4.74-1.17,7.08-3.44Z"/><path class="cls-1" d="M418.42,83c0,7.43,3.17,11.14,9.36,11.14,3.44,0,6.05-1.17,9-3.78h2.33v5.7c-3.92,1.93-7.42,3.1-11.41,3.1-9.91,0-15.27-6-15.27-17.4,0-11.62,5.64-18.09,14.24-18.09,7.35,0,12.44,5,12.44,13.62V83Zm15.13-4v-.83c0-6.87-1.65-10.52-7.08-10.52-5.16,0-7.91,3.78-8.05,11.35Z"/><path class="cls-1" d="M452.6,64.69v2.2l.55.14a11.7,11.7,0,0,1,8.53-3.37c6.4,0,10,3.92,10,12.72V98.12H466V78c0-6.54-1-9.56-6-9.56-2.48,0-4.81,1-7.5,3.23V98.12h-5.77V64.69Z"/><path class="cls-1" d="M483.76,68.68h-5.85v-4h5.85V55.75h5.7v8.94H497v4h-7.57V88.76c0,4.89.21,5.44,5,5.44H497v3.92H492.9c-8.32,0-9.14-.83-9.14-9.08Z"/><path class="cls-1" d="M503.63,90.42a8.77,8.77,0,0,0,7.91,4.4c3.92,0,6.46-2.2,6.46-5.37,0-3.92-2.89-4.67-8.11-6.33-6-2-9-4.74-9-9.62,0-5.5,4.4-9.63,11.9-9.63a26.63,26.63,0,0,1,9.62,2v6.67h-2.68c-1.79-3.3-4.19-4.81-7.56-4.81-3,0-5.5,2.13-5.5,4.88,0,3.72,2.95,4.68,8.11,6.12,5.91,1.72,8.94,5,8.94,9.84,0,6.26-4.74,10.59-11.76,10.59-4.81,0-8.6-1-11.28-2.61V90.42Z"/><path class="cls-1" d="M536.57,51.21V73.77a39,39,0,0,1-.55,6.74l1.38.62a53.74,53.74,0,0,1,3.3-5.36l8-11.08h7l-11.76,14.1v.83A20.24,20.24,0,0,1,547.09,84l8.67,14.17h-7.15L540.7,82h-1.38l-2.75,3.24V98.12h-5.78V51.21Z"/><path class="cls-1" d="M583.34,98.12h-5.71v-3a12.15,12.15,0,0,1-9,3.85c-6,0-9.9-4.33-9.9-10.18,0-7.15,5.36-9.9,15.4-11.82l3.51-.62V74.25c0-4.26-2.13-5.71-6.67-5.71a9.9,9.9,0,0,0-7.64,3.92h-2.75V65.79a29.43,29.43,0,0,1,10.11-1.92c8.6,0,12.66,3.58,12.66,11.28Zm-5.71-18c-8.74,1.72-12.86,3.78-12.86,8.25,0,3.16,2.54,5.64,6.12,5.64,2.34,0,4.47-1,6.74-3Zm4.74-31.71a42.22,42.22,0,0,0-11.14,8.46h-3.85v-1.3a32.78,32.78,0,0,0,7.7-9.22h7.29Z"/><path class="cls-1" d="M629.07,98.12v-2.2l-.55-.14A11.7,11.7,0,0,1,620,99.15,9.48,9.48,0,0,1,610.84,93c-1-2.41-.89-5.71-.89-10V64.69h5.71V85.05c0,6,1,9.28,6,9.28,2.48,0,4.81-1.1,7.5-3.3V64.69h5.77V98.12Z"/><path class="cls-1" d="M650.25,64.69v2.2l.55.14a11.7,11.7,0,0,1,8.53-3.37c6.39,0,10,3.92,10,12.72V98.12h-5.71V78c0-6.54-1-9.56-6-9.56-2.48,0-4.82,1-7.5,3.23V98.12H644.4V64.69Z"/><path class="cls-1" d="M685.81,51.21v5.58h-7.29V51.21Zm-1,46.91H679V64.69h5.77Z"/><path class="cls-1" d="M699.15,83c0,7.43,3.16,11.14,9.35,11.14,3.44,0,6-1.17,9-3.78h2.34v5.7c-3.92,1.93-7.43,3.1-11.42,3.1-9.9,0-15.27-6-15.27-17.4,0-11.62,5.64-18.09,14.24-18.09,7.36,0,12.45,5,12.45,13.62V83Zm15.13-4v-.83c0-6.87-1.65-10.52-7.09-10.52-5.16,0-7.91,3.78-8,11.35Z"/><path class="cls-1" d="M318.84,147.22H315.2c-2.13-5.71-5.43-8.46-10.66-8.46-7.77,0-11.69,6.26-11.69,19,0,12.18,4.06,18.5,11.69,18.5,5.16,0,8.66-2.82,10.66-8.53h3.64v8.46c-4.74,3.65-9.49,5.5-14.3,5.5-11.69,0-18.16-8.32-18.16-23.93s6.47-23.86,18.16-23.86c4.19,0,9,1.72,14.3,5.09Z"/><path class="cls-1" d="M330.53,134.77l7.5,27.51a104.57,104.57,0,0,1,2.34,10.8h1a100.73,100.73,0,0,1,2.34-10.8l7.5-27.51H358l-14.58,45.87h-5.22l-14.58-45.87Z"/><path class="cls-1" d="M370.83,163.11c0,7.15,1.45,13.27,9.7,13.27,7.09,0,9.63-4.26,9.63-13.27V134.77h6v27.92c0,13.07-4.19,19-15.68,19-12.58,0-15.75-7.35-15.75-19V134.77h6.05Z"/><path class="cls-1" d="M402,140v-5.23h32.46V140H421.24v40.64h-6.05V140Z"/><path class="cls-1" d="M303.51,125.15a10.89,10.89,0,0,1,6.32-6.88h3.37v2.13a19,19,0,0,0-6.94,8.39H299c-2.13-4.26-4.75-7.22-7-8.39v-2.13h3.44c3.1,1.24,5,3.37,6.33,6.88Z"/></svg>