<?xml version="1.0" encoding="UTF-8" standalone="no"?>
<!DOCTYPE svg PUBLIC "-//W3C//DTD SVG 1.1//EN" "http://www.w3.org/Graphics/SVG/1.1/DTD/svg11.dtd">
<svg width="100%" height="100%" viewBox="0 0 111 54" version="1.1" xmlns="http://www.w3.org/2000/svg" xmlns:xlink="http://www.w3.org/1999/xlink" xml:space="preserve" xmlns:serif="http://www.serif.com/" style="fill-rule:evenodd;clip-rule:evenodd;stroke-linejoin:round;stroke-miterlimit:2;">
    <rect id="Colour" x="0" y="0" width="111" height="54" style="fill:none;"/>
    <g id="Colour1" serif:id="Colour">
        <g transform="matrix(21,0,0,1,21,6)">
            <rect x="0" y="0" width="4" height="4" style="fill:rgb(249,176,0);"/>
        </g>
        <g transform="matrix(20.75,0,0,1,22,44)">
            <rect x="0" y="0" width="4" height="4" style="fill:rgb(249,176,0);"/>
        </g>
        <g transform="matrix(12.75,0,0,1,6,6)">
            <rect x="0" y="0" width="4" height="4" style="fill:rgb(0,115,188);"/>
        </g>
        <g transform="matrix(12.75,0,0,1,6,44)">
            <rect x="0" y="0" width="4" height="4" style="fill:rgb(0,115,188);"/>
        </g>
        <g transform="matrix(1,0,0,10.5,6,6)">
            <rect x="0" y="0" width="4" height="4" style="fill:rgb(0,115,188);"/>
        </g>
        <g transform="matrix(3.25,0,0,1,16,16)">
            <rect x="0" y="0" width="4" height="4" style="fill:rgb(0,115,188);"/>
        </g>
        <g transform="matrix(3.5,0,0,1,41,16)">
            <rect x="0" y="0" width="4" height="4" style="fill:rgb(0,115,188);"/>
        </g>
        <g transform="matrix(4,0,0,1,59,25)">
            <rect x="0" y="0" width="4" height="4" style="fill:rgb(249,176,0);"/>
        </g>
        <g transform="matrix(4,0,0,1,79,25)">
            <rect x="0" y="0" width="4" height="4" style="fill:rgb(249,176,0);"/>
        </g>
        <g transform="matrix(1,0,0,4,65,19)">
            <rect x="0" y="0" width="4" height="4" style="fill:rgb(249,176,0);"/>
        </g>
        <g transform="matrix(1,0,0,4,85,19)">
            <rect x="0" y="0" width="4" height="4" style="fill:rgb(249,176,0);"/>
        </g>
        <g transform="matrix(1,0,0,10.5,101,6)">
            <rect x="0" y="0" width="4" height="4" style="fill:rgb(249,176,0);"/>
        </g>
        <g transform="matrix(3,0,0,1,16,24)">
            <rect x="0" y="0" width="4" height="4" style="fill:rgb(0,115,188);"/>
        </g>
        <g transform="matrix(1,0,0,5.5,16,16)">
            <rect x="0" y="0" width="4" height="4" style="fill:rgb(0,115,188);"/>
        </g>
        <g transform="matrix(1,0,0,5.5,33,16)">
            <rect x="0" y="0" width="4" height="4" style="fill:rgb(0,115,188);"/>
        </g>
        <g transform="matrix(1,0,0,5.5,46,16)">
            <rect x="0" y="0" width="4" height="4" style="fill:rgb(0,115,188);"/>
        </g>
    </g>
</svg>
