<svg xmlns="http://www.w3.org/2000/svg" xml:space="preserve" viewBox="0 0 269.797 115.01"><path fill="#f9b000" d="M122.333 0v11h137.945v93.976H122.333v10.035h147.464V0Z"/>
    <path fill="#0073bc" d="M38.928 53.227H61.66v9.423H38.928v24.883h-9.919V29.669h34.304v9.422H38.928Z"/>
    <path fill="none" stroke="#0073bc" stroke-miterlimit="10" stroke-width="1.33333"
          d="M38.928 53.227H61.66v9.423H38.928v24.883h-9.919V29.669h34.304v9.422H38.928Z"/>
    <path fill="#0073bc" stroke="#0073bc" stroke-miterlimit="10" stroke-width="1.33333" d="M77.863 29.67h9.918v57.862h-9.918z"/>
    <path fill="#0073bc" d="M116.303 39.092h-15.954v-9.423h41.827v9.423h-15.955v48.44h-9.918Z"/>
    <path fill="none" stroke="#0073bc" stroke-miterlimit="10" stroke-width="1.33333" d="M116.303 39.092h-15.954v-9.423h41.827v9.423h-15.955v48.44h-9.918Z"/>
    <path fill="#f9b000" d="M195.083 63.983h-14.632v15.705h-9.918V63.983H155.9v-9.257h14.632v-15.21h9.918v15.21h14.632Z"/>
    <path fill="none" stroke="#f9b000" stroke-miterlimit="10" stroke-width="1.33333"
          d="M195.083 63.983h-14.632v15.705h-9.918V63.983H155.9v-9.257h14.632v-15.21h9.918v15.21h14.632Z"/>
    <path fill="#f9b000" d="M242.202 63.983H227.57v15.705h-9.919V63.983H203.02v-9.257h14.632v-15.21h9.919v15.21h14.632Z"/>
    <path fill="none" stroke="#f9b000" stroke-miterlimit="10" stroke-width="1.33333"
          d="M242.202 63.983H227.57v15.705h-9.919V63.983H203.02v-9.257h14.632v-15.21h9.919v15.21h14.632Z"/>
    <path fill="#0073bc" d="M0 0v115.01h148.945v-10.034H11V11h137.945V0Z"/>
</svg>
